<?xml version="1.0" standalone="no"?>
<!DOCTYPE svg PUBLIC "-//W3C//DTD SVG 20010904//EN"
 "http://www.w3.org/TR/2001/REC-SVG-20010904/DTD/svg10.dtd">
<svg version="1.0" xmlns="http://www.w3.org/2000/svg"
 width="1024.000000pt" height="1024.000000pt" viewBox="0 0 1024.000000 1024.000000"
 preserveAspectRatio="xMidYMid meet">

<g transform="translate(0.000000,1024.000000) scale(0.100000,-0.100000)"
fill="#000000" stroke="none">
<path d="M0 5120 l0 -5120 5120 0 5120 0 0 5120 0 5120 -5120 0 -5120 0 0
-5120z m5515 2985 c633 -99 1084 -292 1577 -675 119 -92 379 -356 481 -489
322 -418 520 -878 598 -1391 27 -178 36 -504 20 -676 -23 -235 -80 -505 -153
-719 -223 -654 -703 -1245 -1303 -1603 -680 -405 -1461 -543 -2209 -391 -285
58 -497 129 -751 253 -527 256 -941 618 -1258 1101 -227 347 -397 809 -452
1230 -78 593 43 1255 322 1760 251 456 613 846 1037 1119 449 289 903 443
1481 500 92 9 514 -4 610 -19z"/>
<path d="M4920 7769 c-669 -54 -1294 -341 -1760 -809 -202 -203 -366 -424
-480 -650 -183 -363 -273 -707 -287 -1095 -16 -446 72 -853 273 -1261 301
-616 867 -1111 1547 -1355 389 -140 855 -190 1242 -134 338 48 609 131 890
269 448 222 781 510 1057 916 277 406 424 860 453 1400 16 292 -56 705 -174
1002 -95 242 -197 427 -336 612 -393 524 -923 873 -1569 1032 -269 66 -599 94
-856 73z m451 -209 c370 -38 749 -166 1090 -369 140 -83 138 -52 22 -257 -55
-99 -103 -187 -106 -197 -7 -19 47 8 289 144 67 38 126 69 132 69 5 0 69 -61
142 -136 387 -402 607 -842 684 -1375 9 -59 16 -134 16 -168 l0 -61 -161 0
-161 0 -29 -29 c-37 -38 -39 -88 -5 -128 l24 -28 168 -3 167 -3 -6 -78 c-38
-487 -224 -961 -528 -1341 -87 -110 -269 -289 -389 -385 -367 -293 -799 -474
-1285 -541 -150 -21 -486 -21 -626 0 -493 72 -882 238 -1281 546 -139 107
-293 257 -388 375 -229 288 -407 657 -484 1005 -21 97 -56 346 -56 402 0 15
18 17 166 20 l166 3 30 34 c25 28 29 39 24 69 -3 20 -15 45 -26 56 -19 19 -35
21 -192 24 l-171 3 7 87 c55 701 427 1360 1002 1774 368 265 784 430 1219 483
136 16 408 19 546 5z"/>
<path d="M5012 7337 c-47 -50 -15 -127 51 -127 65 0 104 83 62 130 -26 29 -85
27 -113 -3z"/>
<path d="M5365 7339 c-74 -41 -53 -149 29 -149 44 0 76 35 76 82 0 54 -59 92
-105 67z"/>
<path d="M4688 7314 c-51 -27 -48 -104 4 -133 33 -19 73 -7 101 30 17 23 18
32 8 61 -7 21 -22 40 -37 47 -32 14 -43 14 -76 -5z"/>
<path d="M5685 7278 c-50 -29 -61 -90 -22 -126 50 -47 131 -10 129 59 -1 54
-63 93 -107 67z"/>
<path d="M4325 7196 c-213 -78 -422 -179 -585 -283 -97 -63 -110 -76 -110
-115 0 -30 38 -78 63 -78 7 0 60 29 116 65 170 108 426 230 586 279 l70 22 0
69 c0 67 -1 70 -25 72 -14 1 -65 -12 -115 -31z"/>
<path d="M5962 7147 c-27 -29 -29 -77 -4 -108 41 -49 132 -11 132 56 0 68 -82
101 -128 52z"/>
<path d="M5025 7022 c-93 -34 -459 -201 -879 -401 -70 -33 -130 -61 -132 -61
-1 0 -78 -36 -171 -81 -92 -44 -230 -110 -306 -145 -191 -89 -299 -143 -319
-162 -17 -14 -18 -80 -18 -1108 0 -980 2 -1094 16 -1108 15 -15 1617 -817
1808 -905 49 -23 95 -41 102 -41 7 0 101 43 209 95 108 52 198 95 200 95 10 0
1463 724 1486 741 l29 20 0 1090 c0 776 -3 1096 -11 1111 -19 36 -1331 664
-1724 825 -131 55 -210 64 -290 35z m336 -293 c129 -61 244 -116 257 -121 40
-20 81 3 -448 -251 -185 -89 -451 -212 -635 -294 -246 -111 -535 -246 -535
-252 0 -3 68 -40 152 -82 141 -70 183 -99 144 -99 -9 0 -62 21 -118 46 -57 26
-122 55 -145 65 l-43 18 0 -320 0 -320 86 72 c67 56 88 69 95 58 5 -8 49 -83
97 -167 l87 -153 3 314 2 313 173 79 c94 43 276 128 402 188 491 234 612 289
680 312 64 22 218 87 438 186 48 21 93 39 101 39 7 0 60 -22 117 -49 57 -27
158 -74 224 -104 177 -81 335 -160 335 -167 0 -4 -42 -26 -92 -50 -51 -24
-196 -95 -322 -158 -278 -138 -419 -202 -446 -202 -51 0 -7 33 145 107 l164
80 -212 98 c-117 54 -252 118 -301 142 -49 24 -95 43 -102 43 -6 0 -63 -24
-125 -53 -63 -29 -167 -78 -231 -107 -65 -30 -118 -57 -118 -61 0 -3 26 -18
58 -32 31 -14 181 -81 333 -150 153 -69 286 -128 298 -132 21 -6 21 -9 21
-386 0 -208 1 -379 3 -379 2 0 28 12 58 26 173 85 284 134 298 134 10 0 27 -9
39 -20 12 -11 27 -20 34 -20 22 0 -22 -23 -177 -95 -82 -38 -188 -88 -235
-111 l-85 -41 -3 433 c-2 386 -4 434 -18 434 -8 0 -165 -70 -348 -155 l-333
-156 -139 67 c-399 190 -520 245 -538 242 -21 -3 -21 -7 -24 -417 -2 -323 -5
-412 -15 -408 -82 32 -427 202 -416 206 8 2 20 13 28 24 19 27 55 19 175 -37
l97 -45 -29 52 c-16 29 -48 87 -71 129 -23 43 -46 80 -52 83 -5 4 -57 -30
-116 -75 l-108 -80 -5 422 -5 423 -238 110 c-131 60 -238 115 -239 120 0 6 98
56 218 112 121 56 266 125 324 153 58 27 110 50 116 50 6 0 38 -12 70 -26 33
-15 144 -64 247 -109 l188 -83 172 82 c95 46 201 96 237 111 36 16 68 31 72
35 7 5 -107 59 -390 185 l-73 33 48 28 c26 15 140 72 253 125 113 54 205 98
206 98 0 1 106 -49 235 -110z m-1275 -2196 l334 -168 0 -52 c0 -29 -3 -53 -7
-53 -3 0 -158 75 -345 167 l-338 167 0 53 c0 31 4 53 11 53 5 0 161 -75 345
-167z m2388 68 c73 -36 137 -97 169 -161 19 -38 22 -61 22 -150 0 -93 -4 -112
-29 -170 -57 -131 -160 -242 -286 -309 -98 -53 -193 -51 -259 5 -39 32 -92
140 -99 199 l-5 46 -76 -3 c-75 -3 -76 -3 -73 -28 1 -14 28 -73 58 -132 61
-119 58 -129 -22 -75 -57 38 -89 81 -109 150 -75 251 134 570 425 652 88 24
206 15 284 -24z m-2412 -327 c407 -204 368 -179 368 -229 0 -69 5 -71 -357
108 l-338 167 -6 36 c-7 42 -1 74 13 74 6 0 150 -70 320 -156z m12 -277 c182
-90 336 -170 342 -178 12 -16 7 -99 -7 -99 -4 0 -159 74 -344 164 l-335 165 0
55 c0 31 3 56 7 56 3 0 155 -73 337 -163z"/>
<path d="M6193 4488 c-66 -68 -123 -205 -123 -294 l0 -31 52 9 c50 9 279 76
286 83 9 9 -21 115 -46 164 -25 51 -88 111 -116 111 -7 0 -30 -19 -53 -42z"/>
<path d="M6430 4478 c16 -29 37 -82 46 -118 10 -36 18 -66 20 -68 6 -9 84 41
84 54 0 24 -29 76 -64 112 -26 28 -93 72 -110 72 -2 0 9 -24 24 -52z"/>
<path d="M6044 4462 c-67 -50 -133 -129 -169 -204 -50 -105 -49 -108 34 -108
l70 0 6 58 c8 78 51 210 81 249 31 40 28 41 -22 5z"/>
<path d="M6530 4211 c-33 -18 -35 -23 -46 -92 -7 -41 -15 -85 -19 -99 -7 -24
-6 -24 19 5 46 53 113 206 90 205 -5 -1 -25 -9 -44 -19z"/>
<path d="M6320 4133 c-41 -14 -113 -33 -160 -43 l-85 -18 3 -33 c7 -85 88
-189 146 -189 56 0 139 104 164 205 17 67 22 105 14 104 -4 -1 -41 -12 -82
-26z"/>
<path d="M3447 6693 c-20 -23 -23 -41 -14 -76 18 -68 127 -47 127 25 0 57 -76
91 -113 51z"/>
<path d="M3272 6544 c-28 -19 -30 -74 -4 -97 61 -55 140 35 82 93 -24 24 -48
25 -78 4z"/>
<path d="M2897 5817 c-10 -6 -20 -29 -23 -49 -5 -30 -2 -41 19 -62 35 -35 71
-33 108 3 34 35 36 59 8 95 -16 20 -29 26 -58 26 -20 0 -45 -6 -54 -13z"/>
<path d="M7245 5805 c-14 -13 -25 -36 -25 -50 0 -35 42 -75 78 -75 36 0 82 41
82 73 0 69 -86 102 -135 52z"/>
<path d="M2857 5509 c-46 -27 -40 -115 9 -138 50 -23 114 19 114 75 0 56 -72
93 -123 63z"/>
<path d="M7296 5499 c-33 -26 -36 -79 -5 -110 49 -49 151 1 135 65 -16 63 -79
85 -130 45z"/>
<path d="M2843 4834 c-20 -20 -24 -31 -19 -57 3 -18 16 -40 27 -49 72 -60 174
46 106 110 -32 31 -81 29 -114 -4z"/>
<path d="M7290 4840 c-44 -44 -6 -130 59 -130 40 0 85 52 76 89 -11 42 -34 61
-77 61 -25 0 -45 -7 -58 -20z"/>
<path d="M2914 4536 c-22 -10 -33 -23 -37 -45 -20 -98 95 -142 141 -54 18 33
15 57 -10 80 -32 29 -58 34 -94 19z"/>
<path d="M7241 4514 c-28 -35 -27 -69 4 -99 44 -45 106 -29 125 31 17 51 -10
88 -67 92 -34 3 -44 -1 -62 -24z"/>
<path d="M6715 3596 c-44 -44 -22 -106 38 -106 55 0 88 69 50 102 -34 30 -61
31 -88 4z"/>
<path d="M3840 3340 c-12 -12 -20 -33 -20 -55 0 -69 81 -102 128 -52 48 50 15
127 -53 127 -22 0 -43 -8 -55 -20z"/>
<path d="M6293 3350 c-44 -18 -57 -81 -24 -121 39 -48 120 -22 136 43 6 22 1
33 -23 58 -31 31 -51 35 -89 20z"/>
<path d="M4112 3190 c-43 -41 -20 -121 39 -135 38 -9 89 36 89 79 0 65 -80
100 -128 56z"/>
<path d="M6023 3198 c-53 -26 -45 -130 12 -144 64 -16 120 46 95 107 -18 44
-62 59 -107 37z"/>
<path d="M4404 3065 c-55 -55 -6 -150 68 -129 67 19 82 115 22 143 -38 17 -63
13 -90 -14z"/>
<path d="M5733 3080 c-47 -19 -57 -87 -18 -125 28 -29 61 -32 93 -9 49 34 47
110 -4 133 -29 13 -41 13 -71 1z"/>
</g>
</svg>
